<?xml version="1.0" encoding="UTF-8"?>
<svg version="1.1" xmlns="http://www.w3.org/2000/svg" width="660" height="652">
<path d="M0 0 C1.7602517 -0.00599292 3.52050078 -0.01280022 5.28074646 -0.02035522 C10.03681947 -0.03793826 14.7928204 -0.04270716 19.54892278 -0.0439868 C22.52436199 -0.04541259 25.49978312 -0.04969013 28.47521782 -0.05498123 C38.8663028 -0.07345145 49.25733664 -0.08165505 59.6484375 -0.08007812 C69.31882595 -0.07887545 78.98899168 -0.10001021 88.65932375 -0.13156545 C96.97892841 -0.15774137 105.29846032 -0.16844497 113.61810583 -0.16716731 C118.57979938 -0.16665834 123.54129451 -0.17230615 128.50294685 -0.19352341 C133.16770097 -0.21292962 137.83206769 -0.21301402 142.49683571 -0.19849014 C144.2039929 -0.19640436 145.91117452 -0.20108914 147.61828995 -0.21321106 C156.28290523 -0.27073192 163.82707789 -0.31274064 171.48413086 4.29052734 C172.37100586 4.68240234 173.25788086 5.07427734 174.17163086 5.47802734 C178.70455194 9.03085738 182.53252788 14.53765479 183.48413086 20.29052734 C183.99423407 27.24558845 184.00984003 33.09014225 180.48413086 39.29052734 C180.16702148 39.88478516 179.84991211 40.47904297 179.52319336 41.09130859 C175.66450068 47.48141314 169.35294161 50.00092376 162.48413086 52.29052734 C160.13313482 52.38857804 157.77939632 52.42392526 155.42636108 52.42855835 C154.34173283 52.43279027 154.34173283 52.43279027 153.23519289 52.43710768 C150.80562888 52.44545864 148.37611041 52.44679238 145.9465332 52.44824219 C144.20701977 52.45291016 142.46750756 52.4580537 140.72799683 52.46363831 C136.97771697 52.47492426 133.22744509 52.48335616 129.47715378 52.48975754 C123.54313954 52.5004359 117.60918236 52.52068146 111.67520142 52.5428772 C94.79952617 52.60480327 77.92385387 52.65877901 61.0480957 52.69189453 C51.73093618 52.71025807 42.41387185 52.73921762 33.09678233 52.77989924 C28.16745731 52.80094359 23.23825215 52.81642284 18.30887985 52.81870651 C13.66803705 52.82085896 9.02744358 52.83678912 4.38667679 52.86309624 C2.6876081 52.87026853 0.98850913 52.87240028 -0.71057129 52.86899376 C-9.12496958 52.85482411 -16.6466243 52.89689487 -24.51586914 56.29052734 C-24.51586914 56.95052734 -24.51586914 57.61052734 -24.51586914 58.29052734 C-25.89086914 59.91552734 -25.89086914 59.91552734 -27.51586914 61.29052734 C-28.17586914 61.29052734 -28.83586914 61.29052734 -29.51586914 61.29052734 C-32.69992734 69.093886 -32.93269889 75.98688716 -32.87663269 84.35646057 C-32.87794258 85.77491155 -32.88057238 87.19336182 -32.88440019 88.61180824 C-32.89108106 92.49090638 -32.87914578 96.36975415 -32.864066 100.24882042 C-32.85107511 104.43888509 -32.85549726 108.62893636 -32.85777283 112.8190155 C-32.85934363 120.07241201 -32.84995459 127.32572737 -32.83305931 134.57910347 C-32.80864774 145.06617282 -32.80086183 155.55320305 -32.79709534 166.04029774 C-32.79053424 183.05610288 -32.77058234 200.0718648 -32.7421875 217.08764648 C-32.71463809 233.61401148 -32.69340882 250.14036472 -32.68066406 266.66674805 C-32.67948181 268.19553001 -32.67948181 268.19553001 -32.67827567 269.75519646 C-32.67436047 274.86831304 -32.67056937 279.98142971 -32.66683996 285.09454644 C-32.63575469 327.49323667 -32.58292819 369.89187977 -32.51586914 412.29052734 C-31.83428238 411.60005814 -31.15269562 410.90958893 -30.45045471 410.19819641 C-24.00350677 403.66991148 -17.54583254 397.15240504 -11.07769871 390.64510822 C-7.75326746 387.29986557 -4.43263387 383.95103226 -1.12060547 380.59350586 C2.08006905 377.34914365 5.29061829 374.1148544 8.50804329 370.88710594 C9.72946765 369.65833126 10.94738583 368.42606037 12.16158867 367.19014931 C28.3484728 350.72566287 28.3484728 350.72566287 40.08134574 350.16682082 C41.01573283 350.16741522 41.95011992 350.16800961 42.91282177 350.16862202 C44.53828309 350.16596064 44.53828309 350.16596064 46.19658202 350.1632455 C47.38139059 350.16636011 48.56619915 350.16947472 49.78691101 350.17268372 C51.05002871 350.17197913 52.31314641 350.17127455 53.6145404 350.17054862 C56.38702083 350.16902743 59.15947556 350.17066098 61.93195343 350.17469597 C66.44333276 350.181228 70.95469673 350.18088627 75.46607971 350.17962646 C81.16758546 350.17850649 86.86908637 350.17914883 92.57059161 350.18182727 C103.77736952 350.18695564 114.9841025 350.17859704 126.19087219 350.16520691 C127.95574098 350.16316024 129.72060978 350.16111791 131.48547858 350.15907985 C135.05859063 350.15492383 138.6317026 350.15070869 142.20481455 350.14647233 C151.38930891 350.13567131 160.57380394 350.1258652 169.75830078 350.11743164 C171.14076073 350.11615476 171.14076073 350.11615476 172.55114917 350.11485209 C187.48176975 350.10163565 202.41233692 350.1066481 217.34295692 350.1175032 C232.67748628 350.1281384 248.01188265 350.11593576 263.34638149 350.08342093 C272.80148141 350.06415664 282.25622587 350.06311888 291.71132032 350.08557721 C298.19408454 350.09933756 304.67658986 350.09116024 311.15931835 350.06585262 C314.89743494 350.05192681 318.63489741 350.04765082 322.37298965 350.06967735 C326.43133151 350.09334784 330.48811277 350.07044604 334.5464325 350.04328918 C336.30691493 350.06469151 336.30691493 350.06469151 338.10296267 350.08652622 C345.9029614 349.98117067 351.36052158 348.24661208 357.48413086 343.29052734 C357.81413086 342.63052734 358.14413086 341.97052734 358.48413086 341.29052734 C359.14413086 341.29052734 359.80413086 341.29052734 360.48413086 341.29052734 C363.94042018 333.33689082 363.89783475 325.67875398 363.86425591 317.16876221 C363.85505942 314.61974215 363.86546519 312.07144427 363.88087463 309.52246094 C363.92074311 302.28174808 363.92217878 295.04109746 363.91992188 287.80029297 C363.91987057 283.35475254 363.9391328 278.90960492 363.96925545 274.46417236 C363.98000562 271.96640841 363.96799796 269.46941793 363.95542908 266.97167969 C363.97466354 259.00999521 364.25903763 252.28670887 368.48413086 245.29052734 C368.87600586 244.40365234 369.26788086 243.51677734 369.67163086 242.60302734 C373.22446089 238.07010627 378.73125831 234.24213032 384.48413086 233.29052734 C391.54170633 232.77290545 397.25684267 232.80324596 403.48413086 236.29052734 C404.51538086 236.84740234 405.54663086 237.40427734 406.60913086 237.97802734 C411.94873602 242.27292715 414.63373184 247.76497606 416.48413086 254.29052734 C416.67174579 256.92285757 416.76805751 259.44763963 416.75878906 262.07739258 C416.76645546 263.2129937 416.76645546 263.2129937 416.77427673 264.37153625 C416.78812579 266.86414605 416.78721796 269.35647747 416.78491211 271.84912109 C416.78880471 273.59823202 416.79314054 275.34734201 416.79789734 277.09645081 C416.80535182 280.7639573 416.80507615 284.43136756 416.79980469 288.09887695 C416.79404444 292.75851249 416.81086082 297.41774606 416.83414936 302.07731533 C416.84902038 305.69371275 416.84973986 309.3100167 416.84663963 312.92643929 C416.84714727 314.64173229 416.85227808 316.35703132 416.86245155 318.07229424 C416.93557487 332.13808027 416.08497701 345.56032405 409.48413086 358.29052734 C409.10256836 359.11037109 408.72100586 359.93021484 408.32788086 360.77490234 C404.89271749 368.04159409 400.6531046 375.00283557 394.48413086 380.29052734 C393.82413086 380.29052734 393.16413086 380.29052734 392.48413086 380.29052734 C392.48413086 380.95052734 392.48413086 381.61052734 392.48413086 382.29052734 C377.8717346 395.24477935 361.37294525 401.9446298 341.93678284 400.80947876 C339.50040562 400.68032944 337.06400822 400.5515603 334.62759399 400.42311096 C333.32490696 400.35231386 332.02221992 400.28151676 330.68005753 400.2085743 C310.65224416 399.12375673 290.6205229 398.21909402 270.5712738 397.64730835 C269.33317071 397.61196206 269.33317071 397.61196206 268.07005543 397.5759017 C259.51847127 397.33415412 250.96651112 397.11095361 242.41398707 396.90522072 C238.01645225 396.79886064 233.61903762 396.68813433 229.22167969 396.57470703 C228.34682653 396.55221265 227.47197337 396.52971828 226.5706095 396.50654225 C214.33816825 396.18333022 202.13415934 395.636062 189.91956691 394.90518031 C168.82032619 393.64318299 147.75269819 392.8315713 126.61303711 392.82958984 C125.79026451 392.82857745 124.9674919 392.82756506 124.1197868 392.82652199 C76.69593658 392.84035148 43.27047286 401.0214462 8.89117322 434.89438488 C-5.86170786 449.68839703 -19.51628992 465.77733956 -32.00789833 482.51736069 C-32.73030663 483.4814115 -33.45271493 484.44546231 -34.19701439 485.43872678 C-35.52049949 487.22279798 -36.82580854 489.02057932 -38.107665 490.83479178 C-42.20780224 496.41083605 -45.93144632 499.14556951 -52.51586914 501.29052734 C-53.50586914 501.62052734 -54.49586914 501.95052734 -55.51586914 502.29052734 C-63.45724355 502.98713913 -70.50358817 500.84913556 -76.89086914 495.97802734 C-83.19457492 489.52423333 -85.76408355 482.12524531 -85.77034473 473.15978336 C-85.77355121 472.46174429 -85.77675769 471.76370521 -85.78006133 471.04451343 C-85.78836154 468.70586627 -85.78243699 466.3674752 -85.77656555 464.02882385 C-85.77958626 462.33491645 -85.78347534 460.6410104 -85.78815812 458.94710678 C-85.79845796 454.29215021 -85.79625119 449.63727049 -85.79197752 444.98230755 C-85.78951377 439.96162082 -85.79852033 434.94095276 -85.80601501 429.92027283 C-85.81877578 420.08211764 -85.82055382 410.24398972 -85.81821475 400.40582765 C-85.81643224 392.40600031 -85.81817981 384.40618125 -85.82243919 376.4063549 C-85.82303438 375.26804986 -85.82362957 374.12974481 -85.8242428 372.95694567 C-85.82545455 370.64443684 -85.82666869 368.33192801 -85.82788517 366.01941919 C-85.83876693 344.32125538 -85.83659576 322.62310711 -85.83050033 300.92494243 C-85.82533591 281.08966803 -85.83657292 261.25444281 -85.85559855 241.41917814 C-85.87499004 221.04591753 -85.88323031 200.67268017 -85.8794753 180.29941028 C-85.87756456 168.86419269 -85.88003796 157.4290169 -85.89418983 145.99380684 C-85.90612163 136.25385399 -85.90748869 126.51396865 -85.89539967 116.77401484 C-85.88952237 111.80814256 -85.8883795 106.84239366 -85.90040207 101.87652969 C-85.91130005 97.32201464 -85.90811119 92.76772538 -85.89414039 88.21322071 C-85.89150409 86.57384399 -85.89382608 84.93444934 -85.90187625 83.29509027 C-85.96410095 69.66710967 -84.9024285 56.60746325 -78.51586914 44.29052734 C-78.13430664 43.47068359 -77.75274414 42.65083984 -77.35961914 41.80615234 C-74.72522032 36.23338561 -71.79996467 30.78819949 -67.51586914 26.29052734 C-66.85586914 26.29052734 -66.19586914 26.29052734 -65.51586914 26.29052734 C-65.18586914 25.30052734 -64.85586914 24.31052734 -64.51586914 23.29052734 C-63.85586914 23.29052734 -63.19586914 23.29052734 -62.51586914 23.29052734 C-62.18586914 22.30052734 -61.85586914 21.31052734 -61.51586914 20.29052734 C-60.85586914 20.29052734 -60.19586914 20.29052734 -59.51586914 20.29052734 C-59.51586914 19.63052734 -59.51586914 18.97052734 -59.51586914 18.29052734 C-50.37335774 10.44253083 -39.11822579 5.21940522 -27.51586914 2.29052734 C-26.8401011 2.10923971 -26.16433306 1.92795208 -25.4680872 1.74117088 C-17.06332034 -0.24367551 -8.57815151 -0.00584952 0 0 Z " fill="#000000" transform="translate(85.515869140625,149.70947265625)"/>
<path d="M0 0 C2.93310695 2.34571773 5.78783251 4.74142342 8.58984375 7.2421875 C11.04144863 9.39284081 11.04144863 9.39284081 15 9 C17.51793835 7.22409718 17.51793835 7.22409718 20.0625 4.875 C35.70018323 -8.30119606 52.18576309 -11.42229216 72.16503906 -10.27050781 C88.46410359 -8.71527499 103.00430543 0.16014778 114 12 C114 12.66 114 13.32 114 14 C114.66 14 115.32 14 116 14 C116.33 15.32 116.66 16.64 117 18 C117.66 18 118.32 18 119 18 C120.29214878 20.21905836 121.5623984 22.44476662 122.8125 24.6875 C123.19067871 25.36433838 123.56885742 26.04117676 123.95849609 26.73852539 C126.32701127 31.17443817 127.49164185 34.8943117 128.125 39.9375 C128.92168029 44.17439065 129.45650938 45.57443659 132.8984375 48.26953125 C135.30240889 49.66921417 137.77931963 50.88792995 140.28125 52.1015625 C148.19672382 55.94936227 155.1309421 62.49644935 161 69 C161 69.66 161 70.32 161 71 C161.66 71 162.32 71 163 71 C163 71.99 163 72.98 163 74 C163.66 74 164.32 74 165 74 C169 79.29411765 169 79.29411765 169 83 C169.66 83 170.32 83 171 83 C172.23665737 86.20651081 173.47041595 89.41397177 174.6953125 92.625 C175.41578965 94.48874927 176.1481254 96.34853036 176.9296875 98.1875 C183.202748 113.19110862 181.7427149 129.47581085 178.24755859 144.89257812 C178.06016113 145.75560547 177.87276367 146.61863281 177.6796875 147.5078125 C177.50163574 148.27754395 177.32358398 149.04727539 177.14013672 149.84033203 C176.97027692 152.45806678 177.65744606 153.78588646 179 156 C179.66 156 180.32 156 181 156 C181.66 157.98 182.32 159.96 183 162 C183.66 162 184.32 162 185 162 C188.49281007 168.57869082 191.55690907 174.91625447 193.45703125 182.13671875 C193.83721871 183.99756683 193.83721871 183.99756683 195 185 C200.91588602 206.06808052 197.59704121 229.16734691 187.27734375 248.1640625 C182.3584542 256.72521617 175.8143348 265.89505094 168 272 C167.34 272 166.68 272 166 272 C166 272.66 166 273.32 166 274 C165.01 274 164.02 274 163 274 C163.01160156 275.21558594 163.02320313 276.43117188 163.03515625 277.68359375 C163.04453278 279.26822764 163.05363313 280.85286318 163.0625 282.4375 C163.07087891 283.23994141 163.07925781 284.04238281 163.08789062 284.86914062 C163.0965143 286.91295221 163.0522815 288.95683902 163 291 C162.67 291.33 162.34 291.66 162 292 C161.9175 292.94875 161.835 293.8975 161.75 294.875 C161.03188335 300.36186003 158.39656408 305.07751184 156 310 C155.62875 310.83917969 155.2575 311.67835938 154.875 312.54296875 C150.65701435 321.75516658 142.71562805 334.04178117 133 338 C133 338.66 133 339.32 133 340 C131.35 340.66 129.7 341.32 128 342 C128 342.66 128 343.32 128 344 C121.375 348 121.375 348 118 348 C118 348.66 118 349.32 118 350 C105.36864453 355.14240954 94.10725191 358.39717383 80.375 358.375 C79.32683105 358.37338867 78.27866211 358.37177734 77.19873047 358.37011719 C68.24946526 358.23009187 60.48215684 356.8539963 52 354 C51.13117188 353.73445313 50.26234375 353.46890625 49.3671875 353.1953125 C43.61388 351.20159208 38.53897565 348.0494457 33.375 344.875 C32.65054688 344.43075684 31.92609375 343.98651367 31.1796875 343.52880859 C29.41478141 342.41089332 27.70173714 341.21190709 26 340 C26 339.34 26 338.68 26 338 C25.195625 337.690625 25.195625 337.690625 24.375 337.375 C21.08021991 335.46749574 18.40636372 332.95180616 16 330 C16 329.34 16 328.68 16 328 C15.34 328 14.68 328 14 328 C14 327.34 14 326.68 14 326 C13.34 326 12.68 326 12 326 C12 326.66 12 327.32 12 328 C11.34 328 10.68 328 10 328 C9.79375 328.53625 9.5875 329.0725 9.375 329.625 C7.46749574 332.91978009 4.95180616 335.59363628 2 338 C1.34 338 0.68 338 0 338 C0 338.66 0 339.32 0 340 C-15.69816679 352.41059259 -34.17523338 358.40095 -54 358.25 C-55.01578125 358.25773437 -56.0315625 358.26546875 -57.078125 358.2734375 C-66.4273285 358.24946518 -74.48550571 356.95315807 -83 353 C-84.62317423 352.37027354 -86.24832887 351.7456376 -87.875 351.125 C-92.83552129 349.16209434 -97.40930421 346.70562747 -102 344 C-102 343.34 -102 342.68 -102 342 C-103.65 341.34 -105.3 340.68 -107 340 C-107 339.34 -107 338.68 -107 338 C-107.556875 337.773125 -108.11375 337.54625 -108.6875 337.3125 C-122.64372636 329.39139856 -131.72284508 310.00024028 -136.1171875 295.25 C-137.18402518 290.8072787 -137.22746208 286.54774006 -137.125 282 C-137.11597656 281.22527344 -137.10695313 280.45054687 -137.09765625 279.65234375 C-137.07439388 277.76809157 -137.0385364 275.88400168 -137 274 C-137.99 274 -138.98 274 -140 274 C-140 273.34 -140 272.68 -140 272 C-140.88945312 271.59587891 -140.88945312 271.59587891 -141.796875 271.18359375 C-154.85472414 264.16847267 -162.96992206 246.44676233 -168.1015625 233.14453125 C-174.35284338 211.26504816 -172.36700448 188.21565874 -162 168 C-161.67515625 167.33871094 -161.3503125 166.67742187 -161.015625 165.99609375 C-160.35714447 164.6573904 -159.68150043 163.32713241 -159 162 C-158.34 162 -157.68 162 -157 162 C-156.34 160.02 -155.68 158.04 -155 156 C-154.34 156 -153.68 156 -153 156 C-150.05874539 150.97107166 -151.59027736 146.88185161 -152.875 141.5625 C-157.26492346 121.56898627 -154.81292745 101.16335129 -145 83 C-144.34 83 -143.68 83 -143 83 C-142.88527344 82.42765625 -142.77054687 81.8553125 -142.65234375 81.265625 C-141.93817644 78.78528344 -140.92692128 76.93631303 -139.5625 74.75 C-138.91474609 73.69039062 -138.91474609 73.69039062 -138.25390625 72.609375 C-137.63322266 71.81273438 -137.63322266 71.81273438 -137 71 C-136.34 71 -135.68 71 -135 71 C-134.73058594 70.40703125 -134.46117187 69.8140625 -134.18359375 69.203125 C-129.24796039 60.01600549 -118.20231483 53.37807296 -109 49.3125 C-105.69183552 47.57676349 -104.30510463 46.77662998 -102.92578125 43.265625 C-102.5071013 41.07888893 -102.13804677 38.88221488 -101.8125 36.6796875 C-100.30611643 29.85750808 -96.48948668 23.99263389 -93 18 C-92.34 18 -91.68 18 -91 18 C-90.67 16.68 -90.34 15.36 -90 14 C-89.34 14 -88.68 14 -88 14 C-87.62875 13.12988281 -87.62875 13.12988281 -87.25 12.2421875 C-80.85456129 0.77036932 -65.34557262 -5.46717337 -53.421875 -9.0859375 C-35.48574027 -13.41375865 -15.26451019 -10.24328973 0 0 Z M-44.5625 25.4375 C-45.51253906 25.70433594 -46.46257812 25.97117188 -47.44140625 26.24609375 C-49.3050966 26.7952422 -51.15679215 27.38559738 -53 28 C-53 28.66 -53 29.32 -53 30 C-53.5775 30.08121094 -54.155 30.16242187 -54.75 30.24609375 C-57.70935285 31.23768247 -58.94831766 32.72630702 -61 35.0625 C-61.66 35.79597656 -62.32 36.52945313 -63 37.28515625 C-67.65661322 43.6061449 -69.71163057 48.94162578 -69.5625 56.8125 C-69.55476563 57.99598022 -69.55476563 57.99598022 -69.546875 59.20336914 C-69.36387302 65.07809374 -67.92988294 69.28956864 -65.12890625 74.4765625 C-63.14755215 78.90547167 -63.1703143 83.27079152 -64 88 C-65.8125 91.5 -65.8125 91.5 -68 94 C-68.474375 94.5775 -68.94875 95.155 -69.4375 95.75 C-73.52705955 99.02164764 -77.72110459 99.38908163 -82.79296875 99.24609375 C-87.67339558 98.70190456 -90.36115807 96.66855551 -93.6875 93.1875 C-95.84430187 90.21461094 -97.48900615 87.34009168 -99 84 C-99.495 84.99 -99.495 84.99 -100 86 C-101.64363134 86.72159424 -103.31050386 87.39351421 -105 88 C-105 88.66 -105 89.32 -105 90 C-105.66 90 -106.32 90 -107 90 C-109.96235695 93.63323689 -109.96235695 93.63323689 -111 98 C-111.66 98 -112.32 98 -113 98 C-113.61875 99.155 -114.2375 100.31 -114.875 101.5 C-115.22304688 102.1496875 -115.57109375 102.799375 -115.9296875 103.46875 C-118.76887536 110.18332567 -119.27713793 116.31440861 -119.125 123.5 C-119.11597656 124.32242188 -119.10695313 125.14484375 -119.09765625 125.9921875 C-119.07436865 127.99492083 -119.03850959 129.99750154 -119 132 C-117.91203125 132.11988281 -116.8240625 132.23976563 -115.703125 132.36328125 C-111.08409167 133.15748213 -109.25264195 134.67343437 -106 138 C-102.48449037 143.03889713 -102.17833179 148.04998884 -103 154 C-104.74436273 159.68289242 -108.28642019 162.22795824 -113.390625 164.95703125 C-113.92171875 165.30121094 -114.4528125 165.64539063 -115 166 C-115 166.66 -115 167.32 -115 168 C-115.680625 168.165 -116.36125 168.33 -117.0625 168.5 C-125.16129576 172.63555528 -130.97999156 182.60120045 -134.0859375 190.90234375 C-138.77997762 206.80992415 -136.18004006 220.18887356 -128.42578125 234.46484375 C-127.72001953 235.71974609 -127.72001953 235.71974609 -127 237 C-126.34 237 -125.68 237 -125 237 C-124.01 239.475 -124.01 239.475 -123 242 C-122.34 242 -121.68 242 -121 242 C-121 242.66 -121 243.32 -121 244 C-117.36676311 246.96235695 -117.36676311 246.96235695 -113 248 C-113 248.66 -113 249.32 -113 250 C-105.48912662 254.02368217 -99.05575934 255.92395409 -90.5625 256.4375 C-84.87572451 256.79540895 -80.29646233 257.9352774 -75 260 C-75 260.66 -75 261.32 -75 262 C-74.34 262 -73.68 262 -73 262 C-69.37835425 270.6551195 -69.63133789 277.2414785 -73 286 C-73.66 286 -74.32 286 -75 286 C-75 286.66 -75 287.32 -75 288 C-83.45380377 291.43052906 -91.05713018 291.88270944 -100 290 C-97.79033067 296.12622469 -97.79033067 296.12622469 -95 302 C-94.34 302 -93.68 302 -93 302 C-92.77699219 302.73089844 -92.55398438 303.46179688 -92.32421875 304.21484375 C-88.53766488 312.17889363 -78.03679584 317.96384849 -70.0625 321.1875 C-55.22092946 325.12505953 -40.77517271 323.3259432 -27.35546875 316.06640625 C-20.83228612 312.04921927 -15.52764264 307.35079747 -13 300 C-12.34 300 -11.68 300 -11 300 C-10.18667257 297.89615302 -9.37436583 295.79191143 -8.5625 293.6875 C-7.88380859 291.92986328 -7.88380859 291.92986328 -7.19140625 290.13671875 C-5.23460205 284.98487032 -4.86310269 280.76737665 -4.88647461 275.3059082 C-4.88625557 273.9738887 -4.88625557 273.9738887 -4.8860321 272.61495972 C-4.88672932 269.67687546 -4.89451282 266.73885444 -4.90234375 263.80078125 C-4.90420861 261.76482681 -4.90563219 259.72887192 -4.90663147 257.69291687 C-4.91045131 252.33188643 -4.92027708 246.97088303 -4.93133545 241.60986328 C-4.94156101 236.1403032 -4.94613155 230.67073876 -4.95117188 225.20117188 C-4.96189979 214.46743603 -4.97896985 203.73372026 -5 193 C-5.60264679 193.40897018 -6.20529358 193.81794037 -6.82620239 194.23930359 C-7.62492767 194.77739151 -8.42365295 195.31547943 -9.24658203 195.86987305 C-10.42898972 196.66895332 -10.42898972 196.66895332 -11.63528442 197.48417664 C-14.91587915 199.58709429 -18.32169295 201.22959675 -21.875 202.8125 C-22.5246875 203.11091797 -23.174375 203.40933594 -23.84375 203.71679688 C-31.52623449 207.21817612 -38.70678679 208.21152352 -47 206 C-47 205.34 -47 204.68 -47 204 C-48.175625 202.8553125 -48.175625 202.8553125 -49.375 201.6875 C-52.90673393 198.07167717 -53.8117398 195.66296507 -54.375 190.6875 C-53.89957716 186.01250875 -52.93179039 182.71208602 -50 179 C-43.80551498 174.10417325 -36.2077343 171.09685922 -29 168 C-29 167.34 -29 166.68 -29 166 C-28.26652344 165.7628125 -27.53304687 165.525625 -26.77734375 165.28125 C-17.16352817 160.84618459 -10.49408139 148.42349398 -6.86962891 138.87719727 C-4.11016944 130.32727242 -4.38262826 121.73146392 -4.3984375 112.83984375 C-4.39064464 111.00004191 -4.38197147 109.16024362 -4.37246704 107.32044983 C-4.35762831 103.48361487 -4.35806387 99.64714832 -4.36865234 95.81030273 C-4.38025858 90.91908813 -4.34630175 86.02938413 -4.299963 81.13841915 C-4.27036003 77.34541674 -4.26876155 73.55277347 -4.27498245 69.75967598 C-4.27396334 67.95732178 -4.26362654 66.15494552 -4.24335861 64.352705 C-4.11741672 51.59538121 -5.54878951 42.90868535 -14.375 33.0625 C-22.64937279 25.47765828 -33.72386307 22.35549304 -44.5625 25.4375 Z M40.9375 32.9765625 C34.25531336 40.12551953 30.3738393 46.53392142 30.48242188 56.42871094 C30.4754126 57.22990356 30.46840332 58.03109619 30.46118164 58.85656738 C30.44370024 61.48286497 30.45519324 64.10806804 30.46875 66.734375 C30.46605118 68.57749638 30.46216553 70.42061637 30.45715332 72.26373291 C30.45127069 76.12029623 30.45977729 79.97648787 30.47851562 83.83300781 C30.50124015 88.74637542 30.48821559 93.65886572 30.46422577 98.57220078 C30.44967924 102.37809698 30.45441516 106.1837899 30.46473694 109.98969269 C30.46738319 111.79956418 30.46420948 113.60945484 30.45481873 115.41930389 C30.37719191 134.59173022 35.27685071 147.61638681 48.0078125 162.22265625 C50.21859657 164.19502243 52.20657431 165.06724713 55 166 C55 166.66 55 167.32 55 168 C56.64548828 168.81404297 56.64548828 168.81404297 58.32421875 169.64453125 C59.77869939 170.3670797 61.2331235 171.08974196 62.6875 171.8125 C63.40873047 172.16892578 64.12996094 172.52535156 64.87304688 172.89257812 C77.24747834 179.05154173 77.24747834 179.05154173 80 187 C80.82714875 192.79004124 79.26483257 197.25015998 76 202 C75.01 202.66 74.02 203.32 73 204 C73 204.66 73 205.32 73 206 C60.21686269 209.40883662 50.67304196 204.64023868 39.640625 198.5625 C36.68470968 196.81343768 33.85157872 194.91349478 31 193 C30.90699894 204.65760893 30.83608276 216.31512845 30.79275131 227.97303391 C30.77194615 233.38726734 30.74375853 238.80124548 30.69824219 244.21533203 C30.65453123 249.44788342 30.63080981 254.68019047 30.62049103 259.91291046 C30.61314476 261.9014495 30.5988001 263.88997636 30.57707977 265.87841034 C30.44556802 278.42586483 31.16033628 288.62798009 37 300 C37.66 300 38.32 300 39 300 C39.25265625 300.73476563 39.5053125 301.46953125 39.765625 302.2265625 C44.16326011 312.10732492 54.45209229 317.16339782 64 321 C70.90381498 323.20922079 77.80463118 323.33643504 85 323 C86.04994141 322.95552734 86.04994141 322.95552734 87.12109375 322.91015625 C98.97540505 321.9322352 110.21968816 314.72967699 117.87890625 305.8125 C119.17534636 304.07171297 119.17534636 304.07171297 119 302 C119.66 302 120.32 302 121 302 C122.65 298.37 124.3 294.74 126 291 C123.44952788 289.72476394 122.69849803 290.28040053 120 291 C113.08139494 291.62136004 107.41246161 290.60215833 101 288 C101 287.34 101 286.68 101 286 C100.34 286 99.68 286 99 286 C95.37835425 277.3448805 95.63133789 270.7585215 99 262 C99.66 262 100.32 262 101 262 C101 261.34 101 260.68 101 260 C106.24449678 257.95553515 110.67921913 256.83398342 116.3125 256.5625 C124.43181193 256.10507398 131.80910759 253.77310355 139 250 C139 249.34 139 248.68 139 248 C140.1446875 247.566875 140.1446875 247.566875 141.3125 247.125 C144.15029308 246.03730987 144.15029308 246.03730987 147 244 C147 243.34 147 242.68 147 242 C147.66 242 148.32 242 149 242 C157.98823417 232.80089817 162.12373309 219.59320731 163 207 C162.51362837 193.13840847 156.94897775 181.05356956 147.21875 171.1953125 C144.48681915 168.70463601 144.48681915 168.70463601 141 168 C141 167.34 141 166.68 141 166 C139.33298837 164.88771911 139.33298837 164.88771911 137.25 163.8125 C133.00096242 161.22088842 130.48975609 158.81377435 129 154 C128.23328444 149.04030872 128.32170416 144.62484026 130.6875 140.125 C133.98582852 135.66779929 136.08697266 133.31374463 141.66796875 132.3984375 C142.76753906 132.26695312 143.86710937 132.13546875 145 132 C145.6770253 118.15360106 145.6770253 118.15360106 142 105 C141.4371008 103.64599922 140.87457855 102.29184165 140.3125 100.9375 C139.879375 99.968125 139.44625 98.99875 139 98 C138.34 98 137.68 98 137 98 C136.71125 97.236875 136.4225 96.47375 136.125 95.6875 C135.03730987 92.84970692 135.03730987 92.84970692 133 90 C132.34 90 131.68 90 131 90 C131 89.34 131 88.68 131 88 C130.195625 87.71125 129.39125 87.4225 128.5625 87.125 C126 86 126 86 125 84 C124.60167969 84.68707031 124.20335937 85.37414062 123.79296875 86.08203125 C123.26316406 86.98308594 122.73335937 87.88414063 122.1875 88.8125 C121.66542969 89.70582031 121.14335938 90.59914063 120.60546875 91.51953125 C117.9696297 95.59193465 115.71553093 97.66734996 111 99 C105.28730696 99.61245138 100.87207607 99.32187005 96 96 C90.8928452 90.80980203 89.61433063 87.19154494 89.6328125 80.0390625 C90.02813686 76.7671226 90.92584234 74.81011539 92.5 71.9375 C96.64155827 63.6662504 96.77961766 53.3827168 93.890625 44.64453125 C89.4766918 36.04210767 83.15334708 29.36073075 74 26 C62.34822629 22.63521386 49.9289638 24.35974303 40.9375 32.9765625 Z " fill="#FFFFFF" transform="translate(463,10)"/>
</svg>
